ffmpeg version git-2026-04-19-de18feb Copyright (c) 2000-2026 the FFmpeg developers
  built with gcc 9 (Ubuntu 9.4.0-1ubuntu1~20.04.2)
  configuration: --enable-shared --enable-gpl --enable-libx264
  libavutil      60. 30.100 / 60. 30.100
  libavcodec     62. 30.100 / 62. 30.100
  libavformat    62. 13.102 / 62. 13.102
  libavdevice    62.  4.100 / 62.  4.100
  libavfilter    11. 15.101 / 11. 15.101
  libswscale      9.  7.100 /  9.  7.100
  libswresample   6.  4.100 /  6.  4.100
[in#0/x11grab @ 0x558d1bca2c40] Stream #0: not enough frames to estimate rate; consider increasing probesize
Input #0, x11grab, from ':0.0+0,0':
  Duration: N/A, start: 1777441758.110106, bitrate: 3678192 kb/s
  Stream #0:0: Video: rawvideo (BGR[0] / 0x524742), bgr0, 2870x1602, 3678192 kb/s, 25 fps, 1000k tbr, 1000k tbn, start 1777441758.110106
Stream mapping:
  Stream #0:0 -> #0:0 (rawvideo (native) -> h264 (libx264))
[libx264 @ 0x558d1bcb0f00] using cpu capabilities: MMX2 SSE2Fast SSSE3 SSE4.2 AVX FMA3 BMI2 AVX2
[libx264 @ 0x558d1bcb0f00] profile High, level 5.0
[libx264 @ 0x558d1bcb0f00] 264 - core 155 r2917 0a84d98 - H.264/MPEG-4 AVC codec - Copyleft 2003-2018 - http://www.videolan.org/x264.html - options: cabac=1 ref=1 deblock=1:0:0 analyse=0x3:0x113 me=hex subme=2 psy=1 psy_rd=1.00:0.00 mixed_ref=0 me_range=16 chroma_me=1 trellis=0 8x8dct=1 cqm=0 deadzone=21,11 fast_pskip=1 chroma_qp_offset=0 threads=6 lookahead_threads=2 sliced_threads=0 nr=0 decimate=1 interlaced=0 bluray_compat=0 constrained_intra=0 bframes=3 b_pyramid=2 b_adapt=1 b_bias=0 direct=1 weightb=1 open_gop=0 weightp=1 keyint=250 keyint_min=25 scenecut=40 intra_refresh=0 rc_lookahead=10 rc=crf mbtree=1 crf=23.0 qcomp=0.60 qpmin=0 qpmax=69 qpstep=4 ip_ratio=1.40 aq=1:1.00
Output #0, matroska, to '/home/lmy/catkin_ws/recordings_tmp/exp_15_point/screen.mkv':
  Metadata:
    encoder         : Lavf62.13.102
  Stream #0:0: Video: h264 (H264 / 0x34363248), yuv420p(tv, progressive), 2870x1602, q=2-31, 25 fps, 1k tbn
    Metadata:
      encoder         : Lavc62.30.100 libx264
    Side data:
      CPB properties: bitrate max/min/avg: 0/0/0 buffer size: 0 vbv_delay: N/A
frame=    0 fps=0.0 q=0.0 size=       0KiB time=N/A bitrate=N/A speed=N/A elapsed=0:00:00.50    frame=    6 fps=6.0 q=28.0 size=       1KiB time=00:00:00.16 bitrate=  29.7kbits/s speed=0.16x elapsed=0:00:01.00    frame=   18 fps= 12 q=28.0 size=       1KiB time=00:00:00.64 bitrate=   7.4kbits/s speed=0.426x elapsed=0:00:01.50    frame=   31 fps= 15 q=28.0 size=       1KiB time=00:00:01.16 bitrate=   4.1kbits/s speed=0.579x elapsed=0:00:02.00    frame=   43 fps= 17 q=28.0 size=       1KiB time=00:00:01.68 bitrate=   2.8kbits/s speed=0.67x elapsed=0:00:02.50    frame=   56 fps= 19 q=28.0 size=       1KiB time=00:00:02.20 bitrate=   2.2kbits/s speed=0.732x elapsed=0:00:03.00    frame=   69 fps= 20 q=28.0 size=       1KiB time=00:00:02.68 bitrate=   1.8kbits/s speed=0.764x elapsed=0:00:03.50    frame=   81 fps= 20 q=28.0 size=       1KiB time=00:00:03.20 bitrate=   1.5kbits/s speed=0.799x elapsed=0:00:04.00    frame=   93 fps= 21 q=28.0 size=       1KiB time=00:00:03.64 bitrate=   1.3kbits/s speed=0.808x elapsed=0:00:04.50    frame=  106 fps= 21 q=28.0 size=       1KiB time=00:00:04.16 bitrate=   1.1kbits/s speed=0.831x elapsed=0:00:05.00    frame=  118 fps= 21 q=28.0 size=       1KiB time=00:00:04.64 bitrate=   1.0kbits/s speed=0.842x elapsed=0:00:05.50    frame=  131 fps= 22 q=28.0 size=     172KiB time=00:00:05.16 bitrate= 272.5kbits/s speed=0.859x elapsed=0:00:06.00    frame=  144 fps= 22 q=28.0 size=     172KiB time=00:00:05.68 bitrate= 247.5kbits/s speed=0.872x elapsed=0:00:06.51    frame=  156 fps= 22 q=28.0 size=     172KiB time=00:00:06.16 bitrate= 228.2kbits/s speed=0.879x elapsed=0:00:07.01    frame=  168 fps= 22 q=28.0 size=     172KiB time=00:00:06.64 bitrate= 211.7kbits/s speed=0.884x elapsed=0:00:07.51    frame=  181 fps= 23 q=28.0 size=     172KiB time=00:00:07.20 bitrate= 195.3kbits/s speed=0.899x elapsed=0:00:08.01    frame=  193 fps= 23 q=28.0 size=     172KiB time=00:00:07.64 bitrate= 184.0kbits/s speed=0.898x elapsed=0:00:08.51    frame=  206 fps= 23 q=28.0 size=     172KiB time=00:00:08.16 bitrate= 172.3kbits/s speed=0.905x elapsed=0:00:09.01    frame=  219 fps= 23 q=28.0 size=     172KiB time=00:00:08.68 bitrate= 162.0kbits/s speed=0.912x elapsed=0:00:09.51    frame=  231 fps= 23 q=28.0 size=     172KiB time=00:00:09.16 bitrate= 153.5kbits/s speed=0.915x elapsed=0:00:10.01    frame=  244 fps= 23 q=28.0 size=     172KiB time=00:00:09.68 bitrate= 145.2kbits/s speed=0.92x elapsed=0:00:10.51    frame=  256 fps= 23 q=28.0 size=     256KiB time=00:00:10.16 bitrate= 206.4kbits/s speed=0.922x elapsed=0:00:11.01    frame=  269 fps= 23 q=28.0 size=     256KiB time=00:00:10.68 bitrate= 196.4kbits/s speed=0.927x elapsed=0:00:11.51    frame=  281 fps= 23 q=28.0 size=     256KiB time=00:00:11.16 bitrate= 187.9kbits/s speed=0.929x elapsed=0:00:12.01    frame=  294 fps= 23 q=28.0 size=     256KiB time=00:00:11.68 bitrate= 179.6kbits/s speed=0.933x elapsed=0:00:12.51    frame=  306 fps= 24 q=28.0 size=     256KiB time=00:00:12.16 bitrate= 172.5kbits/s speed=0.934x elapsed=0:00:13.01    frame=  319 fps= 24 q=28.0 size=     256KiB time=00:00:12.72 bitrate= 164.9kbits/s speed=0.941x elapsed=0:00:13.51    frame=  332 fps= 24 q=28.0 size=     256KiB time=00:00:13.20 bitrate= 158.9kbits/s speed=0.941x elapsed=0:00:14.02    frame=  344 fps= 24 q=28.0 size=     256KiB time=00:00:13.72 bitrate= 152.9kbits/s speed=0.945x elapsed=0:00:14.52    frame=  356 fps= 24 q=28.0 size=     256KiB time=00:00:14.16 bitrate= 148.1kbits/s speed=0.942x elapsed=0:00:15.02    frame=  369 fps= 24 q=28.0 size=     256KiB time=00:00:14.68 bitrate= 142.9kbits/s speed=0.946x elapsed=0:00:15.52    frame=  382 fps= 24 q=28.0 size=     256KiB time=00:00:15.20 bitrate= 138.0kbits/s speed=0.948x elapsed=0:00:16.02    frame=  394 fps= 24 q=28.0 size=     256KiB time=00:00:15.68 bitrate= 133.7kbits/s speed=0.949x elapsed=0:00:16.52    frame=  406 fps= 24 q=28.0 size=     256KiB time=00:00:16.20 bitrate= 129.5kbits/s speed=0.951x elapsed=0:00:17.02    frame=  419 fps= 24 q=28.0 size=     256KiB time=00:00:16.68 bitrate= 125.7kbits/s speed=0.952x elapsed=0:00:17.52    frame=  432 fps= 24 q=28.0 size=     256KiB time=00:00:17.20 bitrate= 121.9kbits/s speed=0.954x elapsed=0:00:18.02    frame=  444 fps= 24 q=28.0 size=     256KiB time=00:00:17.68 bitrate= 118.6kbits/s speed=0.954x elapsed=0:00:18.52    frame=  457 fps= 24 q=28.0 size=     256KiB time=00:00:18.20 bitrate= 115.2kbits/s speed=0.956x elapsed=0:00:19.02    frame=  469 fps= 24 q=28.0 size=     256KiB time=00:00:18.72 bitrate= 112.0kbits/s speed=0.959x elapsed=0:00:19.52    frame=  481 fps= 24 q=28.0 size=     256KiB time=00:00:19.16 bitrate= 109.5kbits/s speed=0.957x elapsed=0:00:20.02    frame=  494 fps= 24 q=28.0 size=     256KiB time=00:00:19.72 bitrate= 106.3kbits/s speed=0.961x elapsed=0:00:20.53    frame=  507 fps= 24 q=28.0 size=     512KiB time=00:00:20.24 bitrate= 207.2kbits/s speed=0.962x elapsed=0:00:21.03    frame=  519 fps= 24 q=28.0 size=     512KiB time=00:00:20.68 bitrate= 202.8kbits/s speed=0.96x elapsed=0:00:21.53    frame=  531 fps= 24 q=28.0 size=     512KiB time=00:00:21.16 bitrate= 198.2kbits/s speed=0.96x elapsed=0:00:22.03    frame=  544 fps= 24 q=28.0 size=     512KiB time=00:00:21.72 bitrate= 193.1kbits/s speed=0.964x elapsed=0:00:22.53    frame=  557 fps= 24 q=28.0 size=     512KiB time=00:00:22.24 bitrate= 188.6kbits/s speed=0.965x elapsed=0:00:23.04    frame=  570 fps= 24 q=28.0 size=     512KiB time=00:00:22.72 bitrate= 184.6kbits/s speed=0.965x elapsed=0:00:23.54    frame=  582 fps= 24 q=28.0 size=     512KiB time=00:00:23.20 bitrate= 180.8kbits/s speed=0.965x elapsed=0:00:24.04    frame=  594 fps= 24 q=28.0 size=     512KiB time=00:00:23.72 bitrate= 176.8kbits/s speed=0.966x elapsed=0:00:24.54    frame=  607 fps= 24 q=28.0 size=     512KiB time=00:00:24.20 bitrate= 173.3kbits/s speed=0.966x elapsed=0:00:25.04    frame=  619 fps= 24 q=28.0 size=     512KiB time=00:00:24.68 bitrate= 169.9kbits/s speed=0.966x elapsed=0:00:25.54    frame=  632 fps= 24 q=28.0 size=     768KiB time=00:00:25.24 bitrate= 249.3kbits/s speed=0.969x elapsed=0:00:26.04    frame=  645 fps= 24 q=28.0 size=     768KiB time=00:00:25.76 bitrate= 244.2kbits/s speed=0.97x elapsed=0:00:26.54    frame=  657 fps= 24 q=28.0 size=     768KiB time=00:00:26.20 bitrate= 240.1kbits/s speed=0.969x elapsed=0:00:27.04    frame=  670 fps= 24 q=28.0 size=     768KiB time=00:00:26.72 bitrate= 235.5kbits/s speed=0.97x elapsed=0:00:27.54    frame=  682 fps= 24 q=28.0 size=     768KiB time=00:00:27.24 bitrate= 231.0kbits/s speed=0.971x elapsed=0:00:28.04    frame=  695 fps= 24 q=28.0 size=     768KiB time=00:00:27.76 bitrate= 226.6kbits/s speed=0.972x elapsed=0:00:28.54    frame=  707 fps= 24 q=28.0 size=     768KiB time=00:00:28.24 bitrate= 222.8kbits/s speed=0.972x elapsed=0:00:29.04    frame=  719 fps= 24 q=28.0 size=     768KiB time=00:00:28.68 bitrate= 219.4kbits/s speed=0.971x elapsed=0:00:29.55    frame=  732 fps= 24 q=28.0 size=     768KiB time=00:00:29.20 bitrate= 215.5kbits/s speed=0.972x elapsed=0:00:30.05    frame=  745 fps= 24 q=28.0 size=     768KiB time=00:00:29.72 bitrate= 211.7kbits/s speed=0.973x elapsed=0:00:30.55    frame=  757 fps= 24 q=28.0 size=     768KiB time=00:00:30.20 bitrate= 208.3kbits/s speed=0.973x elapsed=0:00:31.05    frame=  770 fps= 24 q=28.0 size=     768KiB time=00:00:30.76 bitrate= 204.5kbits/s speed=0.975x elapsed=0:00:31.55    frame=  782 fps= 24 q=28.0 size=     768KiB time=00:00:31.20 bitrate= 201.6kbits/s speed=0.973x elapsed=0:00:32.05    frame=  795 fps= 24 q=28.0 size=     768KiB time=00:00:31.72 bitrate= 198.3kbits/s speed=0.974x elapsed=0:00:32.55    frame=  807 fps= 24 q=28.0 size=     768KiB time=00:00:32.20 bitrate= 195.4kbits/s speed=0.974x elapsed=0:00:33.05    frame=  819 fps= 24 q=28.0 size=     768KiB time=00:00:32.68 bitrate= 192.5kbits/s speed=0.974x elapsed=0:00:33.55    frame=  832 fps= 24 q=28.0 size=     768KiB time=00:00:33.20 bitrate= 189.5kbits/s speed=0.975x elapsed=0:00:34.05    frame=  844 fps= 24 q=28.0 size=     768KiB time=00:00:33.72 bitrate= 186.6kbits/s speed=0.976x elapsed=0:00:34.55    frame=  857 fps= 24 q=28.0 size=     768KiB time=00:00:34.20 bitrate= 184.0kbits/s speed=0.976x elapsed=0:00:35.05    frame=  870 fps= 24 q=28.0 size=     768KiB time=00:00:34.72 bitrate= 181.2kbits/s speed=0.977x elapsed=0:00:35.55    frame=  882 fps= 24 q=28.0 size=    1024KiB time=00:00:35.20 bitrate= 238.3kbits/s speed=0.976x elapsed=0:00:36.05    frame=  895 fps= 24 q=28.0 size=    1024KiB time=00:00:35.76 bitrate= 234.6kbits/s speed=0.978x elapsed=0:00:36.55    frame=  907 fps= 24 q=28.0 size=    1024KiB time=00:00:36.20 bitrate= 231.7kbits/s speed=0.977x elapsed=0:00:37.05    frame=  920 fps= 24 q=28.0 size=    1024KiB time=00:00:36.72 bitrate= 228.4kbits/s speed=0.978x elapsed=0:00:37.55    frame=  932 fps= 24 q=28.0 size=    1024KiB time=00:00:37.20 bitrate= 225.5kbits/s speed=0.977x elapsed=0:00:38.05    frame=  945 fps= 25 q=28.0 size=    1024KiB time=00:00:37.72 bitrate= 222.4kbits/s speed=0.978x elapsed=0:00:38.55    frame=  957 fps= 25 q=28.0 size=    1024KiB time=00:00:38.24 bitrate= 219.4kbits/s speed=0.979x elapsed=0:00:39.05    frame=  970 fps= 25 q=28.0 size=    1024KiB time=00:00:38.72 bitrate= 216.6kbits/s speed=0.979x elapsed=0:00:39.55    frame=  982 fps= 25 q=28.0 size=    1024KiB time=00:00:39.20 bitrate= 214.0kbits/s speed=0.979x elapsed=0:00:40.06    frame=  995 fps= 25 q=28.0 size=    1024KiB time=00:00:39.76 bitrate= 211.0kbits/s speed=0.98x elapsed=0:00:40.56    frame= 1007 fps= 25 q=28.0 size=    1024KiB time=00:00:40.24 bitrate= 208.5kbits/s speed=0.98x elapsed=0:00:41.06    frame= 1020 fps= 25 q=28.0 size=    1024KiB time=00:00:40.72 bitrate= 206.0kbits/s speed=0.98x elapsed=0:00:41.56    frame= 1033 fps= 25 q=28.0 size=    1024KiB time=00:00:41.24 bitrate= 203.4kbits/s speed=0.98x elapsed=0:00:42.06    frame= 1045 fps= 25 q=28.0 size=    1024KiB time=00:00:41.72 bitrate= 201.1kbits/s speed=0.98x elapsed=0:00:42.56    frame= 1057 fps= 25 q=28.0 size=    1024KiB time=00:00:42.20 bitrate= 198.8kbits/s speed=0.98x elapsed=0:00:43.06    frame= 1070 fps= 25 q=28.0 size=    1024KiB time=00:00:42.76 bitrate= 196.2kbits/s speed=0.982x elapsed=0:00:43.56    frame= 1082 fps= 25 q=28.0 size=    1024KiB time=00:00:43.20 bitrate= 194.2kbits/s speed=0.98x elapsed=0:00:44.06    frame= 1095 fps= 25 q=28.0 size=    1024KiB time=00:00:43.72 bitrate= 191.9kbits/s speed=0.981x elapsed=0:00:44.56    frame= 1107 fps= 25 q=28.0 size=    1024KiB time=00:00:44.24 bitrate= 189.6kbits/s speed=0.982x elapsed=0:00:45.06    frame= 1120 fps= 25 q=28.0 size=    1024KiB time=00:00:44.76 bitrate= 187.4kbits/s speed=0.982x elapsed=0:00:45.56    frame= 1133 fps= 25 q=28.0 size=    1280KiB time=00:00:45.28 bitrate= 231.6kbits/s speed=0.983x elapsed=0:00:46.06    frame= 1145 fps= 25 q=28.0 size=    1280KiB time=00:00:45.72 bitrate= 229.3kbits/s speed=0.982x elapsed=0:00:46.57    frame= 1158 fps= 25 q=28.0 size=    1280KiB time=00:00:46.24 bitrate= 226.8kbits/s speed=0.982x elapsed=0:00:47.07    frame= 1170 fps= 25 q=28.0 size=    1280KiB time=00:00:46.76 bitrate= 224.2kbits/s speed=0.983x elapsed=0:00:47.57    frame= 1183 fps= 25 q=28.0 size=    1280KiB time=00:00:47.28 bitrate= 221.8kbits/s speed=0.983x elapsed=0:00:48.07    frame= 1195 fps= 25 q=28.0 size=    1280KiB time=00:00:47.72 bitrate= 219.7kbits/s speed=0.982x elapsed=0:00:48.57    frame= 1208 fps= 25 q=28.0 size=    1280KiB time=00:00:48.24 bitrate= 217.4kbits/s speed=0.983x elapsed=0:00:49.08    frame= 1220 fps= 25 q=28.0 size=    1280KiB time=00:00:48.76 bitrate= 215.0kbits/s speed=0.983x elapsed=0:00:49.58    frame= 1233 fps= 25 q=28.0 size=    1280KiB time=00:00:49.24 bitrate= 213.0kbits/s speed=0.983x elapsed=0:00:50.08    frame= 1245 fps= 25 q=28.0 size=    1280KiB time=00:00:49.72 bitrate= 210.9kbits/s speed=0.983x elapsed=0:00:50.58    frame= 1258 fps= 25 q=28.0 size=    1280KiB time=00:00:50.24 bitrate= 208.7kbits/s speed=0.983x elapsed=0:00:51.08    frame= 1270 fps= 25 q=28.0 size=    1280KiB time=00:00:50.72 bitrate= 206.7kbits/s speed=0.983x elapsed=0:00:51.58    frame= 1283 fps= 25 q=28.0 size=    1280KiB time=00:00:51.24 bitrate= 204.6kbits/s speed=0.984x elapsed=0:00:52.08    frame= 1295 fps= 25 q=28.0 size=    1280KiB time=00:00:51.76 bitrate= 202.6kbits/s speed=0.984x elapsed=0:00:52.58    frame= 1308 fps= 25 q=28.0 size=    1280KiB time=00:00:52.24 bitrate= 200.7kbits/s speed=0.984x elapsed=0:00:53.09    frame= 1321 fps= 25 q=28.0 size=    1280KiB time=00:00:52.76 bitrate= 198.7kbits/s speed=0.984x elapsed=0:00:53.59    frame= 1333 fps= 25 q=28.0 size=    1280KiB time=00:00:53.24 bitrate= 197.0kbits/s speed=0.984x elapsed=0:00:54.09    frame= 1346 fps= 25 q=28.0 size=    1280KiB time=00:00:53.80 bitrate= 194.9kbits/s speed=0.985x elapsed=0:00:54.59    frame= 1358 fps= 25 q=28.0 size=    1280KiB time=00:00:54.24 bitrate= 193.3kbits/s speed=0.984x elapsed=0:00:55.09    frame= 1370 fps= 25 q=28.0 size=    1280KiB time=00:00:54.72 bitrate= 191.6kbits/s speed=0.984x elapsed=0:00:55.59    frame= 1383 fps= 25 q=28.0 size=    1536KiB time=00:00:55.24 bitrate= 227.8kbits/s speed=0.985x elapsed=0:00:56.10    frame= 1396 fps= 25 q=28.0 size=    1536KiB time=00:00:55.76 bitrate= 225.7kbits/s speed=0.985x elapsed=0:00:56.60    frame= 1408 fps= 25 q=28.0 size=    1536KiB time=00:00:56.28 bitrate= 223.6kbits/s speed=0.986x elapsed=0:00:57.10    frame= 1419 fps= 25 q=28.0 size=    1536KiB time=00:00:56.72 bitrate= 221.8kbits/s speed=0.985x elapsed=0:00:57.60    frame= 1434 fps= 25 q=28.0 size=    1536KiB time=00:00:57.28 bitrate= 219.7kbits/s speed=0.986x elapsed=0:00:58.10    frame= 1446 fps= 25 q=28.0 size=    1536KiB time=00:00:57.76 bitrate= 217.8kbits/s speed=0.986x elapsed=0:00:58.60    frame= 1458 fps= 25 q=28.0 size=    1536KiB time=00:00:58.28 bitrate= 215.9kbits/s speed=0.986x elapsed=0:00:59.10    frame= 1471 fps= 25 q=28.0 size=    1536KiB time=00:00:58.76 bitrate= 214.1kbits/s speed=0.986x elapsed=0:00:59.60    frame= 1483 fps= 25 q=28.0 size=    1536KiB time=00:00:59.28 bitrate= 212.3kbits/s speed=0.986x elapsed=0:01:00.11    frame= 1496 fps= 25 q=25.0 size=    1536KiB time=00:00:59.76 bitrate= 210.6kbits/s speed=0.986x elapsed=0:01:00.61    frame= 1509 fps= 25 q=28.0 size=    1792KiB time=00:01:00.28 bitrate= 243.5kbits/s speed=0.986x elapsed=0:01:01.11    frame= 1521 fps= 25 q=28.0 size=    1792KiB time=00:01:00.76 bitrate= 241.6kbits/s speed=0.986x elapsed=0:01:01.61    frame= 1533 fps= 25 q=28.0 size=    1792KiB time=00:01:01.24 bitrate= 239.7kbits/s speed=0.986x elapsed=0:01:02.11    frame= 1546 fps= 25 q=28.0 size=    1792KiB time=00:01:01.80 bitrate= 237.5kbits/s speed=0.987x elapsed=0:01:02.61    frame= 1559 fps= 25 q=28.0 size=    1792KiB time=00:01:02.28 bitrate= 235.7kbits/s speed=0.987x elapsed=0:01:03.11    frame= 1571 fps= 25 q=28.0 size=    1792KiB time=00:01:02.76 bitrate= 233.9kbits/s speed=0.987x elapsed=0:01:03.61    frame= 1584 fps= 25 q=28.0 size=    1792KiB time=00:01:03.32 bitrate= 231.8kbits/s speed=0.988x elapsed=0:01:04.11    frame= 1596 fps= 25 q=28.0 size=    1792KiB time=00:01:03.80 bitrate= 230.1kbits/s speed=0.987x elapsed=0:01:04.61    frame= 1609 fps= 25 q=28.0 size=    1792KiB time=00:01:04.28 bitrate= 228.4kbits/s speed=0.987x elapsed=0:01:05.11    frame= 1621 fps= 25 q=28.0 size=    1792KiB time=00:01:04.76 bitrate= 226.7kbits/s speed=0.987x elapsed=0:01:05.62    frame= 1634 fps= 25 q=28.0 size=    1792KiB time=00:01:05.28 bitrate= 224.9kbits/s speed=0.987x elapsed=0:01:06.12    frame= 1646 fps= 25 q=28.0 size=    1792KiB time=00:01:05.76 bitrate= 223.2kbits/s speed=0.987x elapsed=0:01:06.62    frame= 1659 fps= 25 q=28.0 size=    1792KiB time=00:01:06.28 bitrate= 221.5kbits/s speed=0.987x elapsed=0:01:07.12    frame= 1671 fps= 25 q=28.0 size=    1792KiB time=00:01:06.76 bitrate= 219.9kbits/s speed=0.987x elapsed=0:01:07.62    frame= 1684 fps= 25 q=28.0 size=    1792KiB time=00:01:07.32 bitrate= 218.1kbits/s speed=0.988x elapsed=0:01:08.12    frame= 1696 fps= 25 q=28.0 size=    1792KiB time=00:01:07.80 bitrate= 216.5kbits/s speed=0.988x elapsed=0:01:08.62    frame= 1709 fps= 25 q=28.0 size=    1792KiB time=00:01:08.32 bitrate= 214.9kbits/s speed=0.988x elapsed=0:01:09.12    frame= 1721 fps= 25 q=28.0 size=    1792KiB time=00:01:08.84 bitrate= 213.2kbits/s speed=0.989x elapsed=0:01:09.63    frame= 1734 fps= 25 q=28.0 size=    1792KiB time=00:01:09.28 bitrate= 211.9kbits/s speed=0.988x elapsed=0:01:10.13    frame= 1747 fps= 25 q=28.0 size=    1792KiB time=00:01:09.80 bitrate= 210.3kbits/s speed=0.988x elapsed=0:01:10.63    frame= 1759 fps= 25 q=28.0 size=    2048KiB time=00:01:10.28 bitrate= 238.7kbits/s speed=0.988x elapsed=0:01:11.13    frame= 1772 fps= 25 q=28.0 size=    2048KiB time=00:01:10.80 bitrate= 237.0kbits/s speed=0.988x elapsed=0:01:11.63    frame= 1784 fps= 25 q=28.0 size=    2048KiB time=00:01:11.28 bitrate= 235.4kbits/s speed=0.988x elapsed=0:01:12.13    frame= 1797 fps= 25 q=28.0 size=    2048KiB time=00:01:11.80 bitrate= 233.7kbits/s speed=0.988x elapsed=0:01:12.63    frame= 1809 fps= 25 q=28.0 size=    2048KiB time=00:01:12.32 bitrate= 232.0kbits/s speed=0.989x elapsed=0:01:13.13    frame= 1822 fps= 25 q=28.0 size=    2048KiB time=00:01:12.84 bitrate= 230.3kbits/s speed=0.989x elapsed=0:01:13.63    frame= 1834 fps= 25 q=28.0 size=    2048KiB time=00:01:13.28 bitrate= 228.9kbits/s speed=0.988x elapsed=0:01:14.13    frame= 1847 fps= 25 q=28.0 size=    2048KiB time=00:01:13.80 bitrate= 227.3kbits/s speed=0.989x elapsed=0:01:14.63    frame= 1859 fps= 25 q=28.0 size=    2048KiB time=00:01:14.28 bitrate= 225.9kbits/s speed=0.989x elapsed=0:01:15.13    frame= 1872 fps= 25 q=28.0 size=    2048KiB time=00:01:14.80 bitrate= 224.3kbits/s speed=0.989x elapsed=0:01:15.63    frame= 1884 fps= 25 q=28.0 size=    2304KiB time=00:01:15.28 bitrate= 250.7kbits/s speed=0.989x elapsed=0:01:16.13    frame= 1897 fps= 25 q=28.0 size=    2304KiB time=00:01:15.80 bitrate= 249.0kbits/s speed=0.989x elapsed=0:01:16.63    frame= 1909 fps= 25 q=28.0 size=    2304KiB time=00:01:16.28 bitrate= 247.4kbits/s speed=0.989x elapsed=0:01:17.14    frame= 1922 fps= 25 q=28.0 size=    2304KiB time=00:01:16.80 bitrate= 245.8kbits/s speed=0.989x elapsed=0:01:17.64    frame= 1934 fps= 25 q=28.0 size=    2304KiB time=00:01:17.28 bitrate= 244.2kbits/s speed=0.989x elapsed=0:01:18.14    frame= 1947 fps= 25 q=28.0 size=    2304KiB time=00:01:17.80 bitrate= 242.6kbits/s speed=0.989x elapsed=0:01:18.64    frame= 1960 fps= 25 q=28.0 size=    2304KiB time=00:01:18.36 bitrate= 240.9kbits/s speed=0.99x elapsed=0:01:19.14    frame= 1972 fps= 25 q=28.0 size=    2304KiB time=00:01:18.80 bitrate= 239.5kbits/s speed=0.989x elapsed=0:01:19.64    frame= 1985 fps= 25 q=28.0 size=    2304KiB time=00:01:19.32 bitrate= 238.0kbits/s speed=0.99x elapsed=0:01:20.14    frame= 1995 fps= 25 q=28.0 size=    2304KiB time=00:01:19.72 bitrate= 236.8kbits/s speed=0.988x elapsed=0:01:20.64    frame= 2009 fps= 25 q=28.0 size=    2304KiB time=00:01:20.28 bitrate= 235.1kbits/s speed=0.989x elapsed=0:01:21.14    frame= 2022 fps= 25 q=28.0 size=    2304KiB time=00:01:20.80 bitrate= 233.6kbits/s speed=0.99x elapsed=0:01:21.64    frame= 2035 fps= 25 q=28.0 size=    2304KiB time=00:01:21.36 bitrate= 232.0kbits/s speed=0.99x elapsed=0:01:22.14    frame= 2047 fps= 25 q=28.0 size=    2304KiB time=00:01:21.80 bitrate= 230.7kbits/s speed=0.99x elapsed=0:01:22.64    frame= 2060 fps= 25 q=28.0 size=    2304KiB time=00:01:22.36 bitrate= 229.2kbits/s speed=0.99x elapsed=0:01:23.14    frame= 2072 fps= 25 q=28.0 size=    2304KiB time=00:01:22.80 bitrate= 228.0kbits/s speed=0.99x elapsed=0:01:23.65    frame= 2085 fps= 25 q=28.0 size=    2304KiB time=00:01:23.32 bitrate= 226.5kbits/s speed=0.99x elapsed=0:01:24.15    frame= 2097 fps= 25 q=28.0 size=    2304KiB time=00:01:23.80 bitrate= 225.2kbits/s speed=0.99x elapsed=0:01:24.65    frame= 2110 fps= 25 q=28.0 size=    2304KiB time=00:01:24.32 bitrate= 223.8kbits/s speed=0.99x elapsed=0:01:25.15    frame= 2122 fps= 25 q=28.0 size=    2304KiB time=00:01:24.80 bitrate= 222.6kbits/s speed=0.99x elapsed=0:01:25.65    frame= 2135 fps= 25 q=28.0 size=    2560KiB time=00:01:25.32 bitrate= 245.8kbits/s speed=0.99x elapsed=0:01:26.15    frame= 2147 fps= 25 q=28.0 size=    2560KiB time=00:01:25.80 bitrate= 244.4kbits/s speed=0.99x elapsed=0:01:26.65    frame= 2160 fps= 25 q=28.0 size=    2560KiB time=00:01:26.32 bitrate= 243.0kbits/s speed=0.99x elapsed=0:01:27.15    frame= 2172 fps= 25 q=28.0 size=    2560KiB time=00:01:26.80 bitrate= 241.6kbits/s speed=0.99x elapsed=0:01:27.65    frame= 2185 fps= 25 q=28.0 size=    2560KiB time=00:01:27.32 bitrate= 240.2kbits/s speed=0.991x elapsed=0:01:28.15    frame= 2197 fps= 25 q=28.0 size=    2560KiB time=00:01:27.80 bitrate= 238.9kbits/s speed=0.99x elapsed=0:01:28.65    frame= 2210 fps= 25 q=28.0 size=    2560KiB time=00:01:28.32 bitrate= 237.4kbits/s speed=0.991x elapsed=0:01:29.15    frame= 2222 fps= 25 q=28.0 size=    2560KiB time=00:01:28.80 bitrate= 236.2kbits/s speed=0.99x elapsed=0:01:29.65    frame= 2235 fps= 25 q=28.0 size=    2560KiB time=00:01:29.32 bitrate= 234.8kbits/s speed=0.991x elapsed=0:01:30.15    frame= 2247 fps= 25 q=28.0 size=    2560KiB time=00:01:29.80 bitrate= 233.5kbits/s speed=0.99x elapsed=0:01:30.66    frame= 2260 fps= 25 q=28.0 size=    2560KiB time=00:01:30.36 bitrate= 232.1kbits/s speed=0.991x elapsed=0:01:31.16    frame= 2272 fps= 25 q=28.0 size=    2560KiB time=00:01:30.80 bitrate= 231.0kbits/s speed=0.991x elapsed=0:01:31.66    frame= 2285 fps= 25 q=28.0 size=    2560KiB time=00:01:31.32 bitrate= 229.6kbits/s speed=0.991x elapsed=0:01:32.16    frame= 2298 fps= 25 q=28.0 size=    2560KiB time=00:01:31.84 bitrate= 228.3kbits/s speed=0.991x elapsed=0:01:32.66    frame= 2310 fps= 25 q=28.0 size=    2560KiB time=00:01:32.32 bitrate= 227.2kbits/s speed=0.991x elapsed=0:01:33.16    frame= 2322 fps= 25 q=28.0 size=    2560KiB time=00:01:32.80 bitrate= 226.0kbits/s speed=0.991x elapsed=0:01:33.66    frame= 2335 fps= 25 q=28.0 size=    2560KiB time=00:01:33.32 bitrate= 224.7kbits/s speed=0.991x elapsed=0:01:34.16    frame= 2347 fps= 25 q=28.0 size=    2560KiB time=00:01:33.84 bitrate= 223.5kbits/s speed=0.991x elapsed=0:01:34.66    frame= 2360 fps= 25 q=28.0 size=    2560KiB time=00:01:34.32 bitrate= 222.3kbits/s speed=0.991x elapsed=0:01:35.16    frame= 2372 fps= 25 q=28.0 size=    2560KiB time=00:01:34.80 bitrate= 221.2kbits/s speed=0.991x elapsed=0:01:35.66    frame= 2385 fps= 25 q=28.0 size=    2816KiB time=00:01:35.32 bitrate= 242.0kbits/s speed=0.991x elapsed=0:01:36.16    frame= 2398 fps= 25 q=28.0 size=    2816KiB time=00:01:35.84 bitrate= 240.7kbits/s speed=0.991x elapsed=0:01:36.66    frame= 2410 fps= 25 q=28.0 size=    2816KiB time=00:01:36.36 bitrate= 239.4kbits/s speed=0.992x elapsed=0:01:37.16    frame= 2423 fps= 25 q=28.0 size=    2816KiB time=00:01:36.84 bitrate= 238.2kbits/s speed=0.992x elapsed=0:01:37.66    frame= 2435 fps= 25 q=28.0 size=    2816KiB time=00:01:37.32 bitrate= 237.0kbits/s speed=0.991x elapsed=0:01:38.17    frame= 2447 fps= 25 q=28.0 size=    2816KiB time=00:01:37.88 bitrate= 235.7kbits/s speed=0.992x elapsed=0:01:38.67    frame= 2460 fps= 25 q=28.0 size=    2816KiB time=00:01:38.32 bitrate= 234.6kbits/s speed=0.991x elapsed=0:01:39.17    frame= 2473 fps= 25 q=28.0 size=    2816KiB time=00:01:38.84 bitrate= 233.4kbits/s speed=0.992x elapsed=0:01:39.67    frame= 2485 fps= 25 q=28.0 size=    2816KiB time=00:01:39.36 bitrate= 232.2kbits/s speed=0.992x elapsed=0:01:40.17    frame= 2497 fps= 25 q=28.0 size=    2816KiB time=00:01:39.80 bitrate= 231.1kbits/s speed=0.991x elapsed=0:01:40.67    frame= 2510 fps= 25 q=28.0 size=    2816KiB time=00:01:40.32 bitrate= 230.0kbits/s speed=0.992x elapsed=0:01:41.17    frame= 2523 fps= 25 q=28.0 size=    2816KiB time=00:01:40.84 bitrate= 228.8kbits/s speed=0.992x elapsed=0:01:41.67    frame= 2535 fps= 25 q=28.0 size=    2816KiB time=00:01:41.36 bitrate= 227.6kbits/s speed=0.992x elapsed=0:01:42.17    frame= 2548 fps= 25 q=28.0 size=    2816KiB time=00:01:41.84 bitrate= 226.5kbits/s speed=0.992x elapsed=0:01:42.67    frame= 2560 fps= 25 q=28.0 size=    2816KiB time=00:01:42.36 bitrate= 225.4kbits/s speed=0.992x elapsed=0:01:43.17    frame= 2573 fps= 25 q=28.0 size=    2816KiB time=00:01:42.84 bitrate= 224.3kbits/s speed=0.992x elapsed=0:01:43.67    frame= 2585 fps= 25 q=28.0 size=    2816KiB time=00:01:43.32 bitrate= 223.3kbits/s speed=0.992x elapsed=0:01:44.17    frame= 2598 fps= 25 q=28.0 size=    2816KiB time=00:01:43.84 bitrate= 222.2kbits/s speed=0.992x elapsed=0:01:44.68    frame= 2610 fps= 25 q=28.0 size=    2816KiB time=00:01:44.32 bitrate= 221.1kbits/s speed=0.992x elapsed=0:01:45.18    frame= 2623 fps= 25 q=28.0 size=    2816KiB time=00:01:44.84 bitrate= 220.0kbits/s speed=0.992x elapsed=0:01:45.68    frame= 2635 fps= 25 q=28.0 size=    3072KiB time=00:01:45.32 bitrate= 238.9kbits/s speed=0.992x elapsed=0:01:46.18    frame= 2648 fps= 25 q=28.0 size=    3072KiB time=00:01:45.88 bitrate= 237.7kbits/s speed=0.992x elapsed=0:01:46.68    frame= 2660 fps= 25 q=28.0 size=    3072KiB time=00:01:46.32 bitrate= 236.7kbits/s speed=0.992x elapsed=0:01:47.18    frame= 2673 fps= 25 q=28.0 size=    3072KiB time=00:01:46.84 bitrate= 235.5kbits/s speed=0.992x elapsed=0:01:47.68    frame= 2685 fps= 25 q=28.0 size=    3072KiB time=00:01:47.36 bitrate= 234.4kbits/s speed=0.992x elapsed=0:01:48.18    frame= 2698 fps= 25 q=28.0 size=    3072KiB time=00:01:47.84 bitrate= 233.4kbits/s speed=0.992x elapsed=0:01:48.68    frame= 2711 fps= 25 q=28.0 size=    3072KiB time=00:01:48.36 bitrate= 232.2kbits/s speed=0.992x elapsed=0:01:49.19    frame= 2723 fps= 25 q=28.0 size=    3072KiB time=00:01:48.84 bitrate= 231.2kbits/s speed=0.992x elapsed=0:01:49.69    frame= 2736 fps= 25 q=28.0 size=    3072KiB time=00:01:49.36 bitrate= 230.1kbits/s speed=0.992x elapsed=0:01:50.19    frame= 2748 fps= 25 q=28.0 size=    3072KiB time=00:01:49.88 bitrate= 229.0kbits/s speed=0.993x elapsed=0:01:50.70    frame= 2761 fps= 25 q=28.0 size=    3328KiB time=00:01:50.36 bitrate= 247.0kbits/s speed=0.992x elapsed=0:01:51.20    frame= 2774 fps= 25 q=28.0 size=    3328KiB time=00:01:50.88 bitrate= 245.9kbits/s speed=0.993x elapsed=0:01:51.70    frame= 2786 fps= 25 q=28.0 size=    3328KiB time=00:01:51.40 bitrate= 244.7kbits/s speed=0.993x elapsed=0:01:52.20    frame= 2799 fps= 25 q=28.0 size=    3328KiB time=00:01:51.92 bitrate= 243.6kbits/s speed=0.993x elapsed=0:01:52.70    frame= 2811 fps= 25 q=28.0 size=    3328KiB time=00:01:52.36 bitrate= 242.6kbits/s speed=0.993x elapsed=0:01:53.20    frame= 2824 fps= 25 q=28.0 size=    3328KiB time=00:01:52.88 bitrate= 241.5kbits/s speed=0.993x elapsed=0:01:53.70    frame= 2836 fps= 25 q=28.0 size=    3328KiB time=00:01:53.40 bitrate= 240.4kbits/s speed=0.993x elapsed=0:01:54.20    frame= 2849 fps= 25 q=28.0 size=    3328KiB time=00:01:53.92 bitrate= 239.3kbits/s speed=0.993x elapsed=0:01:54.70    frame= 2861 fps= 25 q=28.0 size=    3328KiB time=00:01:54.40 bitrate= 238.3kbits/s speed=0.993x elapsed=0:01:55.20    frame= 2874 fps= 25 q=28.0 size=    3328KiB time=00:01:54.88 bitrate= 237.3kbits/s speed=0.993x elapsed=0:01:55.70    frame= 2886 fps= 25 q=28.0 size=    3328KiB time=00:01:55.40 bitrate= 236.2kbits/s speed=0.993x elapsed=0:01:56.20    frame= 2899 fps= 25 q=28.0 size=    3328KiB time=00:01:55.88 bitrate= 235.3kbits/s speed=0.993x elapsed=0:01:56.71    frame= 2911 fps= 25 q=28.0 size=    3328KiB time=00:01:56.36 bitrate= 234.3kbits/s speed=0.993x elapsed=0:01:57.21    frame= 2924 fps= 25 q=28.0 size=    3328KiB time=00:01:56.88 bitrate= 233.3kbits/s speed=0.993x elapsed=0:01:57.71    frame= 2936 fps= 25 q=28.0 size=    3328KiB time=00:01:57.36 bitrate= 232.3kbits/s speed=0.993x elapsed=0:01:58.21    frame= 2948 fps= 25 q=28.0 size=    3328KiB time=00:01:57.84 bitrate= 231.4kbits/s speed=0.993x elapsed=0:01:58.71    frame= 2961 fps= 25 q=28.0 size=    3328KiB time=00:01:58.36 bitrate= 230.3kbits/s speed=0.993x elapsed=0:01:59.21    frame= 2973 fps= 25 q=28.0 size=    3328KiB time=00:01:58.84 bitrate= 229.4kbits/s speed=0.993x elapsed=0:01:59.71    frame= 2986 fps= 25 q=28.0 size=    3328KiB time=00:01:59.36 bitrate= 228.4kbits/s speed=0.993x elapsed=0:02:00.21    frame= 2999 fps= 25 q=28.0 size=    3328KiB time=00:01:59.88 bitrate= 227.4kbits/s speed=0.993x elapsed=0:02:00.71    frame= 3011 fps= 25 q=28.0 size=    3584KiB time=00:02:00.40 bitrate= 243.9kbits/s speed=0.993x elapsed=0:02:01.21    frame= 3024 fps= 25 q=28.0 size=    3584KiB time=00:02:00.88 bitrate= 242.9kbits/s speed=0.993x elapsed=0:02:01.71    frame= 3036 fps= 25 q=28.0 size=    3584KiB time=00:02:01.36 bitrate= 241.9kbits/s speed=0.993x elapsed=0:02:02.21    frame= 3049 fps= 25 q=28.0 size=    3584KiB time=00:02:01.92 bitrate= 240.8kbits/s speed=0.994x elapsed=0:02:02.71    frame= 3061 fps= 25 q=28.0 size=    3584KiB time=00:02:02.36 bitrate= 239.9kbits/s speed=0.993x elapsed=0:02:03.21    frame= 3074 fps= 25 q=28.0 size=    3584KiB time=00:02:02.88 bitrate= 238.9kbits/s speed=0.993x elapsed=0:02:03.71    frame= 3086 fps= 25 q=28.0 size=    3584KiB time=00:02:03.36 bitrate= 238.0kbits/s speed=0.993x elapsed=0:02:04.21    frame= 3099 fps= 25 q=28.0 size=    3584KiB time=00:02:03.88 bitrate= 237.0kbits/s speed=0.993x elapsed=0:02:04.71    frame= 3111 fps= 25 q=28.0 size=    3584KiB time=00:02:04.36 bitrate= 236.1kbits/s speed=0.993x elapsed=0:02:05.21    frame= 3124 fps= 25 q=28.0 size=    3584KiB time=00:02:04.92 bitrate= 235.0kbits/s speed=0.994x elapsed=0:02:05.71    frame= 3136 fps= 25 q=28.0 size=    3840KiB time=00:02:05.36 bitrate= 250.9kbits/s speed=0.993x elapsed=0:02:06.21    frame= 3149 fps= 25 q=28.0 size=    3840KiB time=00:02:05.88 bitrate= 249.9kbits/s speed=0.993x elapsed=0:02:06.72    frame= 3161 fps= 25 q=28.0 size=    3840KiB time=00:02:06.36 bitrate= 248.9kbits/s speed=0.993x elapsed=0:02:07.22    frame= 3174 fps= 25 q=28.0 size=    3840KiB time=00:02:06.88 bitrate= 247.9kbits/s speed=0.993x elapsed=0:02:07.72    frame= 3187 fps= 25 q=28.0 size=    3840KiB time=00:02:07.40 bitrate= 246.9kbits/s speed=0.994x elapsed=0:02:08.22    frame= 3199 fps= 25 q=28.0 size=    3840KiB time=00:02:07.88 bitrate= 246.0kbits/s speed=0.993x elapsed=0:02:08.73    frame= 3212 fps= 25 q=28.0 size=    3840KiB time=00:02:08.40 bitrate= 245.0kbits/s speed=0.994x elapsed=0:02:09.23    frame= 3224 fps= 25 q=28.0 size=    3840KiB time=00:02:08.88 bitrate= 244.1kbits/s speed=0.993x elapsed=0:02:09.73    frame= 3237 fps= 25 q=28.0 size=    3840KiB time=00:02:09.44 bitrate= 243.0kbits/s speed=0.994x elapsed=0:02:10.23    frame= 3249 fps= 25 q=28.0 size=    3840KiB time=00:02:09.88 bitrate= 242.2kbits/s speed=0.993x elapsed=0:02:10.73    frame= 3262 fps= 25 q=28.0 size=    3840KiB time=00:02:10.44 bitrate= 241.2kbits/s speed=0.994x elapsed=0:02:11.23    frame= 3274 fps= 25 q=28.0 size=    3840KiB time=00:02:10.88 bitrate= 240.4kbits/s speed=0.994x elapsed=0:02:11.73    frame= 3287 fps= 25 q=28.0 size=    3840KiB time=00:02:11.40 bitrate= 239.4kbits/s speed=0.994x elapsed=0:02:12.23    frame= 3299 fps= 25 q=28.0 size=    3840KiB time=00:02:11.88 bitrate= 238.5kbits/s speed=0.994x elapsed=0:02:12.73    frame= 3311 fps= 25 q=28.0 size=    3840KiB time=00:02:12.36 bitrate= 237.7kbits/s speed=0.993x elapsed=0:02:13.23    frame= 3324 fps= 25 q=28.0 size=    3840KiB time=00:02:12.92 bitrate= 236.7kbits/s speed=0.994x elapsed=0:02:13.73    frame= 3337 fps= 25 q=28.0 size=    3840KiB time=00:02:13.44 bitrate= 235.7kbits/s speed=0.994x elapsed=0:02:14.23    frame= 3349 fps= 25 q=28.0 size=    3840KiB time=00:02:13.92 bitrate= 234.9kbits/s speed=0.994x elapsed=0:02:14.73    frame= 3361 fps= 25 q=28.0 size=    3840KiB time=00:02:14.44 bitrate= 234.0kbits/s speed=0.994x elapsed=0:02:15.23    frame= 3374 fps= 25 q=28.0 size=    3840KiB time=00:02:14.88 bitrate= 233.2kbits/s speed=0.994x elapsed=0:02:15.73    frame= 3386 fps= 25 q=28.0 size=    4096KiB time=00:02:15.36 bitrate= 247.9kbits/s speed=0.994x elapsed=0:02:16.23    frame= 3399 fps= 25 q=28.0 size=    4096KiB time=00:02:15.92 bitrate= 246.9kbits/s speed=0.994x elapsed=0:02:16.73    frame= 3411 fps= 25 q=28.0 size=    4096KiB time=00:02:16.36 bitrate= 246.1kbits/s speed=0.994x elapsed=0:02:17.23    frame= 3424 fps= 25 q=28.0 size=    4096KiB time=00:02:16.92 bitrate= 245.1kbits/s speed=0.994x elapsed=0:02:17.73    frame= 3436 fps= 25 q=28.0 size=    4096KiB time=00:02:17.40 bitrate= 244.2kbits/s speed=0.994x elapsed=0:02:18.23    frame= 3449 fps= 25 q=28.0 size=    4096KiB time=00:02:17.88 bitrate= 243.4kbits/s speed=0.994x elapsed=0:02:18.73    [out#0/matroska @ 0x558d1bcaf500] video:4223KiB audio:0KiB subtitle:0KiB other streams:0KiB global headers:0KiB muxing overhead: 0.595561%
frame= 3482 fps= 25 q=-1.0 Lsize=    4248KiB time=00:02:19.20 bitrate= 250.0kbits/s speed=0.999x elapsed=0:02:19.39    
[libx264 @ 0x558d1bcb0f00] frame I:14    Avg QP:11.57  size:118164
[libx264 @ 0x558d1bcb0f00] frame P:877   Avg QP:17.23  size:  1656
[libx264 @ 0x558d1bcb0f00] frame B:2591  Avg QP:24.82  size:   470
[libx264 @ 0x558d1bcb0f00] consecutive B-frames:  0.8%  0.0%  0.1% 99.1%
[libx264 @ 0x558d1bcb0f00] mb I  I16..4: 89.0%  1.9%  9.1%
[libx264 @ 0x558d1bcb0f00] mb P  I16..4:  0.2%  0.1%  0.0%  P16..4:  0.3%  0.2%  0.1%  0.0%  0.0%    skip:99.2%
[libx264 @ 0x558d1bcb0f00] mb B  I16..4:  0.0%  0.0%  0.0%  B16..8:  0.2%  0.1%  0.0%  direct: 0.0%  skip:99.6%  L0:45.0% L1:47.5% BI: 7.5%
[libx264 @ 0x558d1bcb0f00] 8x8 transform intra:4.2% inter:2.2%
[libx264 @ 0x558d1bcb0f00] coded y,uvDC,uvAC intra: 14.3% 20.7% 16.9% inter: 0.1% 0.1% 0.0%
[libx264 @ 0x558d1bcb0f00] i16 v,h,dc,p: 69% 29%  2%  0%
[libx264 @ 0x558d1bcb0f00] i8 v,h,dc,ddl,ddr,vr,hd,vl,hu: 13% 18% 63%  1%  1%  3%  1%  0%  1%
[libx264 @ 0x558d1bcb0f00] i4 v,h,dc,ddl,ddr,vr,hd,vl,hu: 32% 27% 21%  3%  2%  6%  2%  4%  2%
[libx264 @ 0x558d1bcb0f00] i8c dc,h,v,p: 61% 30%  9%  0%
[libx264 @ 0x558d1bcb0f00] Weighted P-Frames: Y:0.0% UV:0.0%
[libx264 @ 0x558d1bcb0f00] kb/s:248.28
Exiting normally, received signal 2.
